<svg width="153" height="48" viewBox="0 0 153 48" fill="none" xmlns="http://www.w3.org/2000/svg">
<path d="M12.1099 31.315C12.1099 34.5783 11.8349 37.1817 11.2849 39.125C10.7349 41.105 9.81826 42.7183 8.53492 43.965C7.25159 45.2117 5.39992 46.33 2.97992 47.32L2.92492 47.375C2.81492 47.375 2.72326 47.2833 2.64992 47.1C2.57659 46.9533 2.57659 46.8433 2.64992 46.77C4.51992 45.6333 5.82159 43.9283 6.55492 41.655C7.32492 39.4183 7.70992 36.4667 7.70992 32.8V5.08C7.70992 3.98 7.58159 3.17333 7.32492 2.66C7.10492 2.14666 6.68326 1.79833 6.05992 1.615C5.43659 1.395 4.46492 1.285 3.14492 1.285C3.07159 1.285 3.03492 1.175 3.03492 0.954999C3.03492 0.735 3.07159 0.625 3.14492 0.625L6.11492 0.679999C7.72826 0.753332 8.97492 0.789998 9.85492 0.789998C10.8083 0.789998 11.9816 0.753332 13.3749 0.679999L15.9599 0.625C16.0333 0.625 16.0699 0.735 16.0699 0.954999C16.0699 1.175 16.0333 1.285 15.9599 1.285C14.8233 1.285 13.9799 1.395 13.4299 1.615C12.9166 1.835 12.5683 2.22 12.3849 2.77C12.2016 3.28333 12.1099 4.09 12.1099 5.19V31.315ZM21.5807 30.325C21.5807 31.4983 21.7273 32.36 22.0207 32.91C22.314 33.4233 22.864 33.79 23.6707 34.01C24.514 34.23 25.8523 34.34 27.6857 34.34C27.7957 34.34 27.8507 34.45 27.8507 34.67C27.8507 34.89 27.7957 35 27.6857 35C26.1823 35 25.009 34.9817 24.1657 34.945L19.3807 34.89L15.5857 34.945C14.889 34.9817 13.9357 35 12.7257 35C12.6523 35 12.6157 34.89 12.6157 34.67C12.6157 34.45 12.6523 34.34 12.7257 34.34C14.0457 34.34 14.999 34.2483 15.5857 34.065C16.209 33.8817 16.6307 33.5333 16.8507 33.02C17.0707 32.47 17.1807 31.645 17.1807 30.545V5.08C17.1807 3.98 17.0707 3.17333 16.8507 2.66C16.6307 2.14666 16.209 1.79833 15.5857 1.615C14.999 1.395 14.0457 1.285 12.7257 1.285C12.6523 1.285 12.6157 1.175 12.6157 0.954999C12.6157 0.735 12.6523 0.625 12.7257 0.625L15.5857 0.679999C17.1257 0.753332 18.3723 0.789998 19.3257 0.789998C20.2057 0.789998 21.2507 0.734999 22.4607 0.625C22.9007 0.625 23.579 0.606666 24.4957 0.569997C25.449 0.496665 26.274 0.459999 26.9707 0.459999C30.4173 0.459999 33.1857 1.23 35.2757 2.77C37.3657 4.27333 38.4107 6.565 38.4107 9.645C38.4107 12.0283 37.8057 14.045 36.5957 15.695C35.4223 17.345 33.9007 18.5733 32.0307 19.38C30.1973 20.1867 28.2907 20.59 26.3107 20.59C25.2473 20.59 24.3673 20.4983 23.6707 20.315C23.5607 20.315 23.5057 20.2233 23.5057 20.04C23.5057 19.93 23.524 19.82 23.5607 19.71C23.634 19.6 23.7073 19.5633 23.7807 19.6C24.3673 19.7467 25.0273 19.82 25.7607 19.82C27.924 19.82 29.7573 19.0317 31.2607 17.455C32.764 15.8783 33.5157 13.605 33.5157 10.635C33.5157 7.73833 32.7823 5.48333 31.3157 3.87C29.849 2.22 27.9057 1.395 25.4857 1.395C24.3857 1.395 23.5607 1.48667 23.0107 1.67C22.4973 1.81666 22.1307 2.165 21.9107 2.715C21.6907 3.22833 21.5807 4.05333 21.5807 5.19V30.325Z" fill="#E5E4DC"/>
<path d="M44.05 16V8.706H45.002V16H44.05ZM44.05 7.18V5.78H45.002V7.18H44.05ZM47.0848 16V8.706H48.0368V11.842H52.2088V8.706H53.1608V16H52.2088V12.696H48.0368V16H47.0848ZM57.0809 16V9.56H54.4769V8.706H60.6369V9.56H58.0329V16H57.0809ZM65.0828 16.14C64.5601 16.14 64.0748 16.042 63.6268 15.846C63.1788 15.6407 62.7915 15.3653 62.4648 15.02C62.1381 14.6653 61.8815 14.2593 61.6948 13.802C61.5175 13.3447 61.4288 12.8547 61.4288 12.332C61.4288 11.6507 61.5828 11.0253 61.8908 10.456C62.2081 9.88667 62.6421 9.434 63.1928 9.098C63.7435 8.75267 64.3688 8.58 65.0688 8.58C65.7875 8.58 66.4128 8.75267 66.9448 9.098C67.4861 9.44333 67.9108 9.90067 68.2188 10.47C68.5268 11.03 68.6808 11.646 68.6808 12.318C68.6808 12.3927 68.6808 12.4673 68.6808 12.542C68.6808 12.6073 68.6761 12.6587 68.6668 12.696H62.4228C62.4695 13.2187 62.6141 13.6853 62.8568 14.096C63.1088 14.4973 63.4308 14.8193 63.8228 15.062C64.2241 15.2953 64.6581 15.412 65.1248 15.412C65.6008 15.412 66.0488 15.2907 66.4688 15.048C66.8981 14.8053 67.1968 14.488 67.3648 14.096L68.1908 14.32C68.0415 14.6653 67.8128 14.978 67.5048 15.258C67.1968 15.538 66.8328 15.7573 66.4128 15.916C66.0021 16.0653 65.5588 16.14 65.0828 16.14ZM62.3948 12.01H67.7848C67.7475 11.478 67.6028 11.0113 67.3508 10.61C67.1081 10.2087 66.7861 9.896 66.3848 9.672C65.9928 9.43867 65.5588 9.322 65.0828 9.322C64.6068 9.322 64.1728 9.43867 63.7808 9.672C63.3888 9.896 63.0668 10.2133 62.8148 10.624C62.5721 11.0253 62.4321 11.4873 62.3948 12.01ZM70.1356 16V8.706H74.4896V9.56H71.0876V16H70.1356ZM79.5474 16.14C78.9408 16.14 78.3948 15.9813 77.9094 15.664C77.4334 15.3467 77.0554 14.9547 76.7754 14.488V18.982H75.8234V8.706H76.6774V10.12C76.9668 9.66267 77.3541 9.294 77.8394 9.014C78.3248 8.72467 78.8428 8.58 79.3934 8.58C79.8974 8.58 80.3594 8.68733 80.7794 8.902C81.1994 9.10733 81.5634 9.38733 81.8714 9.742C82.1794 10.0967 82.4174 10.5027 82.5854 10.96C82.7628 11.408 82.8514 11.8747 82.8514 12.36C82.8514 13.0413 82.7114 13.6713 82.4314 14.25C82.1608 14.8193 81.7781 15.2767 81.2834 15.622C80.7888 15.9673 80.2101 16.14 79.5474 16.14ZM79.2814 15.3C79.6828 15.3 80.0421 15.2207 80.3594 15.062C80.6768 14.894 80.9474 14.67 81.1714 14.39C81.4048 14.11 81.5821 13.7973 81.7034 13.452C81.8248 13.0973 81.8854 12.7333 81.8854 12.36C81.8854 11.968 81.8154 11.5947 81.6754 11.24C81.5448 10.8853 81.3534 10.5727 81.1014 10.302C80.8494 10.0313 80.5601 9.81667 80.2334 9.658C79.9068 9.49933 79.5521 9.42 79.1694 9.42C78.9268 9.42 78.6748 9.46667 78.4134 9.56C78.1521 9.65333 77.9001 9.78867 77.6574 9.966C77.4241 10.134 77.2281 10.3253 77.0694 10.54C76.9108 10.7547 76.8128 10.9833 76.7754 11.226V13.466C76.9248 13.8113 77.1254 14.124 77.3774 14.404C77.6294 14.6747 77.9188 14.894 78.2454 15.062C78.5814 15.2207 78.9268 15.3 79.2814 15.3ZM83.8761 13.9C83.8761 13.4427 84.0067 13.0507 84.2681 12.724C84.5294 12.388 84.8887 12.1313 85.3461 11.954C85.8127 11.7673 86.3494 11.674 86.9561 11.674C87.3107 11.674 87.6794 11.702 88.0621 11.758C88.4447 11.814 88.7854 11.898 89.0841 12.01V11.394C89.0841 10.778 88.9021 10.288 88.5381 9.924C88.1741 9.56 87.6701 9.378 87.0261 9.378C86.6341 9.378 86.2467 9.45267 85.8641 9.602C85.4907 9.742 85.0987 9.952 84.6881 10.232L84.3241 9.56C84.8001 9.23333 85.2667 8.99067 85.7241 8.832C86.1814 8.664 86.6481 8.58 87.1241 8.58C88.0201 8.58 88.7294 8.83667 89.2521 9.35C89.7747 9.86333 90.0361 10.5727 90.0361 11.478V14.852C90.0361 14.9827 90.0641 15.0807 90.1201 15.146C90.1761 15.202 90.2647 15.2347 90.3861 15.244V16C90.2834 16.0093 90.1947 16.0187 90.1201 16.028C90.0454 16.0373 89.9894 16.0373 89.9521 16.028C89.7187 16.0187 89.5414 15.944 89.4201 15.804C89.2987 15.664 89.2334 15.5147 89.2241 15.356L89.2101 14.824C88.8834 15.244 88.4587 15.5707 87.9361 15.804C87.4134 16.028 86.8814 16.14 86.3401 16.14C85.8734 16.14 85.4487 16.042 85.0661 15.846C84.6927 15.6407 84.3987 15.37 84.1841 15.034C83.9787 14.6887 83.8761 14.3107 83.8761 13.9ZM88.7621 14.46C88.8647 14.3293 88.9441 14.2033 89.0001 14.082C89.0561 13.9607 89.0841 13.8533 89.0841 13.76V12.696C88.7667 12.5747 88.4354 12.4813 88.0901 12.416C87.7541 12.3507 87.4134 12.318 87.0681 12.318C86.3867 12.318 85.8361 12.4533 85.4161 12.724C84.9961 12.9947 84.7861 13.3633 84.7861 13.83C84.7861 14.1007 84.8561 14.3573 84.9961 14.6C85.1361 14.8333 85.3414 15.0293 85.6121 15.188C85.8827 15.3373 86.2001 15.412 86.5641 15.412C87.0214 15.412 87.4461 15.3233 87.8381 15.146C88.2394 14.9687 88.5474 14.74 88.7621 14.46ZM93.8036 16V9.56H91.1996V8.706H97.3596V9.56H94.7556V16H93.8036ZM98.6415 16V8.72H99.5935V14.712L104.031 8.706H104.885V16H103.933V10.106L99.5655 16H98.6415ZM106.954 16V8.706H110.594C111.005 8.706 111.35 8.79467 111.63 8.972C111.91 9.14 112.12 9.35933 112.26 9.63C112.409 9.90067 112.484 10.19 112.484 10.498C112.484 10.89 112.391 11.2447 112.204 11.562C112.017 11.87 111.747 12.1033 111.392 12.262C111.812 12.3833 112.153 12.6027 112.414 12.92C112.675 13.2373 112.806 13.62 112.806 14.068C112.806 14.46 112.708 14.8007 112.512 15.09C112.325 15.3793 112.064 15.6033 111.728 15.762C111.401 15.9207 111.023 16 110.594 16H106.954ZM107.864 15.314H110.566C110.809 15.314 111.028 15.2533 111.224 15.132C111.429 15.0013 111.588 14.8333 111.7 14.628C111.821 14.4227 111.882 14.208 111.882 13.984C111.882 13.7413 111.826 13.522 111.714 13.326C111.602 13.1207 111.453 12.9573 111.266 12.836C111.079 12.7147 110.865 12.654 110.622 12.654H107.864V15.314ZM107.864 11.996H110.342C110.585 11.996 110.799 11.9307 110.986 11.8C111.173 11.6693 111.317 11.5013 111.42 11.296C111.523 11.0907 111.574 10.876 111.574 10.652C111.574 10.316 111.462 10.022 111.238 9.77C111.023 9.518 110.743 9.392 110.398 9.392H107.864V11.996ZM114.446 16V8.706H115.398V11.842H119.57V8.706H120.522V16H119.57V12.696H115.398V16H114.446ZM122.608 16V8.72H123.56V14.712L127.998 8.706H128.852V16H127.9V10.106L123.532 16H122.608ZM130.921 16V8.72H131.873V14.712L136.311 8.706H137.165V16H136.213V10.106L131.845 16H130.921ZM134.057 7.782C133.422 7.782 132.932 7.63267 132.587 7.334C132.241 7.03533 132.069 6.65733 132.069 6.2H132.769C132.769 6.48 132.871 6.71333 133.077 6.9C133.291 7.08667 133.618 7.18 134.057 7.18C134.486 7.18 134.799 7.09133 134.995 6.914C135.2 6.73667 135.317 6.49867 135.345 6.2H136.031C136.031 6.65733 135.858 7.03533 135.513 7.334C135.167 7.63267 134.682 7.782 134.057 7.782ZM44.036 30V22.706H44.988V25.842H49.16V22.706H50.112V30H49.16V26.696H44.988V30H44.036ZM52.8597 33.052C52.7011 33.052 52.5377 33.024 52.3697 32.968C52.2111 32.9213 52.0477 32.8513 51.8797 32.758L52.2297 32.086C52.3324 32.142 52.4257 32.1887 52.5097 32.226C52.6031 32.2633 52.7011 32.282 52.8037 32.282C53.0464 32.282 53.2751 32.1607 53.4897 31.918C53.7044 31.6753 53.9097 31.3207 54.1057 30.854L54.4697 29.944L51.2217 22.706H52.2297L54.9037 29.02L57.3677 22.706H58.3197L54.8477 31.148C54.6611 31.5867 54.4651 31.946 54.2597 32.226C54.0544 32.506 53.8351 32.7113 53.6017 32.842C53.3684 32.982 53.1211 33.052 52.8597 33.052ZM61.4696 30V23.56H58.8656V22.706H65.0256V23.56H62.4216V30H61.4696ZM70.0455 30.14C69.4388 30.14 68.8928 29.9813 68.4075 29.664C67.9315 29.3467 67.5535 28.9547 67.2735 28.488V32.982H66.3215V22.706H67.1755V24.12C67.4648 23.6627 67.8522 23.294 68.3375 23.014C68.8228 22.7247 69.3408 22.58 69.8915 22.58C70.3955 22.58 70.8575 22.6873 71.2775 22.902C71.6975 23.1073 72.0615 23.3873 72.3695 23.742C72.6775 24.0967 72.9155 24.5027 73.0835 24.96C73.2608 25.408 73.3495 25.8747 73.3495 26.36C73.3495 27.0413 73.2095 27.6713 72.9295 28.25C72.6588 28.8193 72.2762 29.2767 71.7815 29.622C71.2868 29.9673 70.7082 30.14 70.0455 30.14ZM69.7795 29.3C70.1808 29.3 70.5402 29.2207 70.8575 29.062C71.1748 28.894 71.4455 28.67 71.6695 28.39C71.9028 28.11 72.0802 27.7973 72.2015 27.452C72.3228 27.0973 72.3835 26.7333 72.3835 26.36C72.3835 25.968 72.3135 25.5947 72.1735 25.24C72.0428 24.8853 71.8515 24.5727 71.5995 24.302C71.3475 24.0313 71.0582 23.8167 70.7315 23.658C70.4048 23.4993 70.0502 23.42 69.6675 23.42C69.4248 23.42 69.1728 23.4667 68.9115 23.56C68.6502 23.6533 68.3982 23.7887 68.1555 23.966C67.9222 24.134 67.7262 24.3253 67.5675 24.54C67.4088 24.7547 67.3108 24.9833 67.2735 25.226V27.466C67.4228 27.8113 67.6235 28.124 67.8755 28.404C68.1275 28.6747 68.4168 28.894 68.7435 29.062C69.0795 29.2207 69.4248 29.3 69.7795 29.3ZM74.9481 30V22.72H75.9001V28.712L80.3381 22.706H81.1921V30H80.2401V24.106L75.8721 30H74.9481ZM89.0846 31.694V30H83.2606V22.706H84.2126V29.16H87.9926V22.706H88.9446V29.16H89.9386V31.694H89.0846ZM91.382 30V22.706H92.334V30H91.382ZM91.382 21.18V19.78H92.334V21.18H91.382ZM97.5389 30.14C97.0162 30.14 96.5309 30.042 96.0829 29.846C95.6442 29.6407 95.2615 29.3653 94.9349 29.02C94.6175 28.6653 94.3702 28.264 94.1929 27.816C94.0155 27.3587 93.9269 26.878 93.9269 26.374C93.9269 25.8513 94.0155 25.366 94.1929 24.918C94.3702 24.4607 94.6222 24.0593 94.9489 23.714C95.2755 23.3593 95.6582 23.084 96.0969 22.888C96.5449 22.6827 97.0302 22.58 97.5529 22.58C98.0755 22.58 98.5562 22.6827 98.9949 22.888C99.4335 23.084 99.8162 23.3593 100.143 23.714C100.47 24.0593 100.722 24.4607 100.899 24.918C101.076 25.366 101.165 25.8513 101.165 26.374C101.165 26.878 101.076 27.3587 100.899 27.816C100.722 28.264 100.47 28.6653 100.143 29.02C99.8255 29.3653 99.4429 29.6407 98.9949 29.846C98.5562 30.042 98.0709 30.14 97.5389 30.14ZM94.8929 26.388C94.8929 26.9293 95.0095 27.424 95.2429 27.872C95.4855 28.3107 95.8075 28.6607 96.2089 28.922C96.6102 29.174 97.0535 29.3 97.5389 29.3C98.0242 29.3 98.4675 29.1693 98.8689 28.908C99.2702 28.6467 99.5922 28.292 99.8349 27.844C100.078 27.3867 100.199 26.892 100.199 26.36C100.199 25.8187 100.078 25.324 99.8349 24.876C99.5922 24.428 99.2702 24.0733 98.8689 23.812C98.4675 23.5507 98.0242 23.42 97.5389 23.42C97.0535 23.42 96.6102 23.5553 96.2089 23.826C95.8169 24.0967 95.4995 24.456 95.2569 24.904C95.0142 25.3427 94.8929 25.8373 94.8929 26.388ZM102.057 30.042V29.174C102.309 29.174 102.533 29.1087 102.729 28.978C102.925 28.838 103.098 28.6047 103.247 28.278C103.406 27.9513 103.532 27.5033 103.625 26.934C103.718 26.3553 103.779 25.6227 103.807 24.736L103.891 22.706H108.623V30H107.671V23.56H104.731L104.703 24.82C104.666 25.828 104.586 26.6727 104.465 27.354C104.344 28.026 104.171 28.558 103.947 28.95C103.732 29.342 103.466 29.622 103.149 29.79C102.832 29.958 102.468 30.042 102.057 30.042ZM113.836 30.14C113.313 30.14 112.828 30.042 112.38 29.846C111.941 29.6407 111.558 29.3653 111.232 29.02C110.914 28.6653 110.667 28.264 110.49 27.816C110.312 27.3587 110.224 26.878 110.224 26.374C110.224 25.8513 110.312 25.366 110.49 24.918C110.667 24.4607 110.919 24.0593 111.246 23.714C111.572 23.3593 111.955 23.084 112.394 22.888C112.842 22.6827 113.327 22.58 113.85 22.58C114.372 22.58 114.853 22.6827 115.292 22.888C115.73 23.084 116.113 23.3593 116.44 23.714C116.766 24.0593 117.018 24.4607 117.196 24.918C117.373 25.366 117.462 25.8513 117.462 26.374C117.462 26.878 117.373 27.3587 117.196 27.816C117.018 28.264 116.766 28.6653 116.44 29.02C116.122 29.3653 115.74 29.6407 115.292 29.846C114.853 30.042 114.368 30.14 113.836 30.14ZM111.19 26.388C111.19 26.9293 111.306 27.424 111.54 27.872C111.782 28.3107 112.104 28.6607 112.506 28.922C112.907 29.174 113.35 29.3 113.836 29.3C114.321 29.3 114.764 29.1693 115.166 28.908C115.567 28.6467 115.889 28.292 116.132 27.844C116.374 27.3867 116.496 26.892 116.496 26.36C116.496 25.8187 116.374 25.324 116.132 24.876C115.889 24.428 115.567 24.0733 115.166 23.812C114.764 23.5507 114.321 23.42 113.836 23.42C113.35 23.42 112.907 23.5553 112.506 23.826C112.114 24.0967 111.796 24.456 111.554 24.904C111.311 25.3427 111.19 25.8373 111.19 26.388ZM119.04 30V22.706H123.394V23.56H119.992V30H119.04Z" fill="#E5E4DC"/>
</svg>
